# xmcd
#
# Track frame offsets: 
#        150
#        18498
#        35194
#        55839
#        72543
#        91198
#        111032
#        127209
#        143868
#        157138
#        176256
#        197107
#        216525
#
# Disc length: 3119 seconds
#
# Revision: 1
# Processed by: cddbd v1.5.2PL0 Copyright (c) Steve Scherf et al.
# Submitted via: ExactAudioCopy v0.99pb5
#
DISCID=ca0c2d0d
DTITLE=Domenic Marte - Deseos  De  Amarte
DYEAR=2007
DGENRE=Bachata
TTITLE0=Deseos De Amarte
TTITLE1=Con Los Ojos Cerrados
TTITLE2=Mia Nada Más
TTITLE3=Necesito Que Vuelva
TTITLE4=No Puedo Reprocharte Nada
TTITLE5=Déjame Olvidarte
TTITLE6=She Used To Say 'I Love You'
TTITLE7=Eres Asi
TTITLE8=Cuando un Amor Se Vá
TTITLE9=Que Importa Amiga Mía
TTITLE10=Adicto De Su Amor
TTITLE11=Ese Soy Yo
TTITLE12=Yo Me Equivoco
EXTD=
EXTT0=
EXTT1=
EXTT2=
EXTT3=
EXTT4=
EXTT5=
EXTT6=
EXTT7=
EXTT8=
EXTT9=
EXTT10=
EXTT11=
EXTT12=
PLAYORDER=
